HIERARCHY
ROOT RootJoint
{
    OFFSET   0.000000   0.000000   0.000000
    CHANNELS 6 Xposition Yposition Zposition Xrotation Yrotation Zrotation
    JOINT lHip
    {
        OFFSET   0.100000  -0.051395   0.000000
        CHANNELS 3 Xrotation Yrotation Zrotation
        JOINT lKnee
        {
            OFFSET   0.000000  -0.410000   0.000000
            CHANNELS 3 Xrotation Yrotation Zrotation
            JOINT lAnkle
            {
                OFFSET   0.000000  -0.390000   0.000000
                CHANNELS 3 Xrotation Yrotation Zrotation
                JOINT lToeJoint
                {
                    OFFSET   0.000000  -0.050000   0.130000
                    CHANNELS 3 Xrotation Yrotation Zrotation
                    End Site
                    {
                        OFFSET   0.010000   0.002000   0.060000
                    }
                }
            }
        }
    }
    JOINT pelvis_lowerback
    {
        OFFSET   0.000000   0.093605   0.000000
        CHANNELS 3 Xrotation Yrotation Zrotation
        JOINT lowerback_torso
        {
            OFFSET   0.000000   0.100000   0.000000
            CHANNELS 3 Xrotation Yrotation Zrotation
            JOINT lTorso_Clavicle
            {
                OFFSET   0.001000   0.157500   0.000000
                CHANNELS 3 Xrotation Yrotation Zrotation
                JOINT lShoulder
                {
                    OFFSET   0.117647   0.000000   0.000000
                    CHANNELS 3 Xrotation Yrotation Zrotation
                    JOINT lElbow
                    {
                        OFFSET   0.245000   0.000000   0.000000
                        CHANNELS 3 Xrotation Yrotation Zrotation
                        JOINT lWrist
                        {
                            OFFSET   0.240000   0.000000   0.000000
                            CHANNELS 3 Xrotation Yrotation Zrotation
                            End Site
                            {
                                OFFSET   0.116353  -0.002500   0.000000
                            }
                        }
                    }
                }
            }
            JOINT rTorso_Clavicle
            {
                OFFSET  -0.001000   0.157500   0.000000
                CHANNELS 3 Xrotation Yrotation Zrotation
                JOINT rShoulder
                {
                    OFFSET  -0.117647   0.000000   0.000000
                    CHANNELS 3 Xrotation Yrotation Zrotation
                    JOINT rElbow
                    {
                        OFFSET  -0.245000   0.000000   0.000000
                        CHANNELS 3 Xrotation Yrotation Zrotation
                        JOINT rWrist
                        {
                            OFFSET  -0.240000   0.000000   0.000000
                            CHANNELS 3 Xrotation Yrotation Zrotation
                            End Site
                            {
                                OFFSET  -0.116353  -0.002500   0.000000
                            }
                        }
                    }
                }
            }
            JOINT torso_head
            {
                OFFSET   0.000000   0.282350   0.000000
                CHANNELS 3 Xrotation Yrotation Zrotation
                End Site
                {
                    OFFSET   0.000000   0.192650   0.000000
                }
            }
        }
    }
    JOINT rHip
    {
        OFFSET  -0.100000  -0.051395   0.000000
        CHANNELS 3 Xrotation Yrotation Zrotation
        JOINT rKnee
        {
            OFFSET   0.000000  -0.410000   0.000000
            CHANNELS 3 Xrotation Yrotation Zrotation
            JOINT rAnkle
            {
                OFFSET   0.000000  -0.390000   0.000000
                CHANNELS 3 Xrotation Yrotation Zrotation
                JOINT rToeJoint
                {
                    OFFSET   0.000000  -0.050000   0.130000
                    CHANNELS 3 Xrotation Yrotation Zrotation
                    End Site
                    {
                        OFFSET  -0.010000   0.002000   0.060000
                    }
                }
            }
        }
    }
}
MOTION
Frames: 13
Frame Time:   0.016667
-0.002747   0.8542   0.310369   2.007782   7.605402   -0.799268   11.214466   -3.287709   -1.595789   13.516136   -1.156329   -4.216068   -17.756924   -3.22179   9.231403   -7.951476   0.21149   -1.52987   2.216526   -0.986038   -1.134356   2.068208   -6.314488   2.079194   2.018769   -0.535592   -19.344472   -5.13344   -37.576562   -50.194553   0.19501   -24.744335   4.441291   0.442206   2.54612   4.853285   1.947356   -5.814603   21.096818   23.706111   30.001373   53.237812   0.41474   10.412451   1.947356   3.573358   -9.484092   6.918746   1.452964   -0.035706   0.107118   -27.727169   -1.656214   2.425269   -2.9691   -5.512474   1.441978   2.238499   -3.183337   -0.892653   -0.00824   -0.00824   0.019226   
-0.00824   0.848707   0.332341   2.013275   7.825132   -1.810025   11.708858   -2.35935   0.057679   15.19707   -1.864958   -4.391852   -17.191119   -3.617304   9.24239   -9.401694   0.260929   -1.568322   2.644999   -1.024491   0.129091   1.458457   -6.633097   1.864958   1.925383   -0.151064   -19.547723   -3.941405   -37.142596   -49.958343   0.200504   -24.672923   4.314946   0.914626   2.436255   4.847791   2.068208   -5.523461   21.179217   23.794003   30.803388   52.864271   0.41474   10.115816   1.947356   3.100938   -9.775235   7.017624   1.447471   -0.00824   0.068666   -27.595331   -2.732891   3.496452   -1.672694   -5.528954   1.831998   6.67155   -3.331655   -4.018311   -0.013733   -0.00824   0.02472   
-0.00824   0.848707   0.354314   1.991302   8.044862   -2.859236   11.994507   -1.156329   1.804532   17.213092   -2.699931   -4.540169   -16.444038   -4.08423   9.220417   -10.983749   0.299382   -1.540856   3.073472   -1.079423   1.398032   0.881666   -6.935225   1.722133   1.837491   0.24445   -19.783932   -2.650492   -36.725109   -49.694667   0.205997   -24.546578   4.205081   1.31014   2.35935   4.825818   2.178073   -5.221332   21.245136   23.832456   31.599908   52.457771   0.420233   9.813687   1.969329   2.721904   -10.082856   7.034104   1.430991   0.02472   0.013733   -27.62829   -3.600824   4.589609   0.145571   -5.594873   2.178073   10.588235   -3.694209   -6.627604   -0.013733   -0.00824   0.02472   
-0.013733   0.848707   0.376287   1.842985   8.281071   -4.034791   11.478141   1.068437   3.963378   20.59144   -4.040284   -4.606088   -14.966354   -4.825818   9.055619   -13.093156   0.288396   -1.2607   3.496452   -1.211261   2.677958   0.475166   -7.176928   1.864958   1.760586   0.672923   -20.184939   -0.947585   -36.395514   -49.266194   0.200504   -24.184024   4.144656   1.392538   2.386816   4.737926   2.282444   -4.875257   21.21767   23.656672   32.385443   51.952392   0.425727   9.473106   2.079194   2.699931   -10.428931   6.715496   1.398032   0.074159   -0.085145   -28.353399   -3.666743   5.781643   4.05127   -5.864042   2.34287   12.45594   -4.029297   -7.231861   -0.013733   -0.00824   0.02472   
-0.013733   0.848707   0.403754   1.645228   8.33051   -5.018082   10.489357   3.540398   5.918975   24.519112   -5.485008   -4.358892   -12.813001   -5.534447   8.775463   -15.43328   0.184024   -0.722362   3.809567   -1.315633   3.699702   0.233463   -7.286793   2.084688   1.678187   1.106889   -20.547494   0.771801   -36.060426   -48.914626   0.19501   -23.695125   4.095216   1.507897   2.474708   4.611582   2.370336   -4.463264   21.118791   23.387503   33.187457   51.501946   0.43122   9.138018   2.134127   2.551614   -10.775006   6.479286   1.370565   0.123598   -0.173037   -28.93019   -3.694209   6.797894   7.94049   -6.149691   2.644999   13.554589   -4.298466   -7.731746   -0.013733   -0.00824   0.030213   
-0.013733   0.8542   0.425727   1.326619   7.90753   -5.517967   8.462348   6.644083   7.413138   29.853056   -7.143969   -3.397574   -8.984207   -6.193637   8.198672   -18.333715   -0.19501   0.458686   3.837034   -1.392538   4.06775   0.409247   -7.100023   2.502174   1.601282   1.535363   -20.816663   2.551614   -35.736324   -48.744335   0.184024   -22.882124   4.056764   1.71664   2.710918   4.375372   2.425269   -3.8645   20.849622   22.865644   34.033417   51.216297   0.43122   8.808423   2.057221   2.101167   -11.126574   6.440833   1.376059   0.19501   -0.238956   -29.13344   -3.573358   7.396658   11.785763   -6.473793   3.254749   12.741588   -4.353399   -7.967956   -0.013733   -0.00824   0.030213   
-0.019226   0.8542   0.4477   0.953079   7.374685   -5.798123   6.19913   9.286336   8.56672   35.401236   -8.440375   -2.095674   -4.457771   -6.589151   7.347219   -20.805676   -0.799268   2.068208   3.776608   -1.414511   4.188602   0.711376   -6.847333   2.881209   1.507897   1.91989   -20.98146   4.221561   -35.285878   -48.771801   0.173037   -22.003204   3.974365   2.17258   3.051499   4.029297   2.480201   -3.254749   20.580453   22.29984   34.91783   50.941634   0.420233   8.55024   1.930877   1.612268   -11.467155   6.407874   1.398032   0.260929   -0.271916   -28.924697   -3.556878   7.786679   15.114672   -6.534218   3.924926   11.516594   -4.227054   -8.253605   -0.013733   -0.00824   0.030213   
-0.019226   0.859693   0.475166   0.436713   6.550698   -5.397116   3.754635   10.049897   8.149233   41.092241   -8.462348   -0.21149   2.178073   -5.9794   5.331197   -21.322042   -2.013275   5.177386   3.485466   -1.244221   3.606317   1.354086   -6.501259   3.040513   1.387045   2.112154   -20.739757   5.457542   -34.330053   -49.463951   0.167544   -20.99794   3.694209   3.584344   3.716182   3.265736   2.551614   -2.683452   20.37171   21.679103   35.923095   50.661479   0.403754   8.59968   1.667201   1.101396   -11.730831   6.287022   1.474937   0.299382   -0.21149   -27.216297   -4.012818   7.523003   16.394598   -5.627832   4.589609   9.423667   -3.452506   -8.791943   -0.00824   -0.00824   0.019226   
-0.019226   0.865187   0.497139   -0.035706   5.787137   -4.952163   1.167315   10.571756   7.6878   46.574502   -8.176699   1.48043   9.308309   -5.495995   3.304189   -19.772946   -2.710918   7.566949   3.18883   -1.046464   2.936141   1.980316   -6.188144   3.194324   1.2607   2.304417   -20.509041   6.715496   -33.467613   -50.079194   0.167544   -20.009155   3.42504   4.935683   4.375372   2.370336   2.628519   -2.17258   20.217899   21.008927   36.840467   50.337377   0.392767   8.764477   1.392538   0.61799   -11.912108   6.089265   1.540856   0.326848   -0.140078   -25.430991   -4.309453   7.29778   17.36141   -4.814832   5.062028   7.48455   -2.760357   -9.203937   -0.00824   -0.002747   0.013733   
-0.02472   0.87068   0.519112   -0.365301   5.259785   -4.298466   -1.985809   10.077363   6.924239   51.210803   -7.270314   2.386816   18.361181   -4.880751   1.403525   -10.154269   -1.288167   6.962692   2.886702   -0.733349   1.95285   2.573587   -6.023346   3.364614   1.139849   2.535134   -20.327764   8.072328   -32.956741   -50.315404   0.167544   -19.097276   3.177844   5.99588   5.067521   0.991531   2.749371   -1.886931   20.272831   20.179446   37.406271   49.815518   0.381781   9.418173   1.09041   0.249943   -11.747311   5.594873   1.568322   0.310369   -0.057679   -23.360037   -3.968872   7.193408   17.092241   -4.435798   4.853285   6.127718   -2.491188   -9.20943   -0.013733   -0.00824   0.019226   
-0.02472   0.876173   0.541085   -0.65095   4.737926   -3.749142   -5.094987   9.484092   6.243076   55.583429   -6.111238   2.941634   25.524376   -4.30396   0.140078   -2.771344   -0.271916   5.534447   2.666972   -0.475166   1.156329   3.067979   -5.781643   3.463493   1.024491   2.81529   -20.206912   9.434653   -32.594186   -50.419776   0.167544   -18.152438   2.914168   6.775921   5.58938   -0.304875   2.864729   -1.612268   20.360723   19.28954   37.862211   49.227741   0.370794   10.165255   0.799268   -0.123598   -11.522087   4.94667   1.601282   0.299382   0.00824   -21.376974   -3.622797   7.182422   16.817578   -4.111696   4.606088   4.798352   -2.243992   -9.302815   -0.013733   -0.00824   0.02472   
-0.030213   0.881666   0.563058   -0.83772   4.232547   -3.447013   -8.077821   8.577707   5.787137   59.335317   -4.468757   2.710918   27.924926   -3.177844   0.585031   -0.986038   -0.063172   2.524147   2.644999   -0.354314   0.843214   3.331655   -5.347677   3.403067   0.931106   3.227283   -20.256352   10.807965   -32.594186   -50.150607   0.167544   -17.14168   2.590066   6.808881   5.743191   -1.359579   2.991073   -1.359579   20.531014   18.267796   38.070954   48.469673   0.370794   11.159533   0.552071   -0.535592   -11.12108   3.902953   1.623255   0.277409   0.02472   -19.624628   -3.271229   7.402152   16.509957   -3.935912   4.276493   3.540398   -2.062715   -9.659876   -0.00824   -0.00824   0.013733   
-0.030213   0.88716   0.585031   -1.002518   3.727169   -3.194324   -11.049668   7.814145   5.33669   62.829023   -2.859236   2.430762   28.847791   -1.996796   1.150835   -0.002747   -0.002747   -0.002747   2.655985   -0.266423   0.639963   3.540398   -4.891737   3.287709   0.843214   3.672236   -20.327764   12.153811   -32.610666   -49.848478   0.173037   -16.119936   2.243992   6.605631   5.842069   -2.216526   3.100938   -1.062943   20.701305   17.218585   38.252232   47.700618   0.365301   12.175784   0.282902   -1.024491   -10.659648   2.78233   1.667201   0.260929   0.035706   -17.921721   -2.925154   7.605402   16.207828   -3.765621   4.012818   2.304417   -1.864958   -10.005951   -0.00824   -0.002747   0.00824   
